<svg version="1.0" xmlns="http://www.w3.org/2000/svg" width="933.333" height="933.333" viewBox="0 0 700 700"><path d="M313 1.1c-21.4 2.2-47.3 8.2-71 16.5C114.9 61.7 29.5 156.8 6.1 280 1.4 305.1.5 316 .5 350c0 41.5 2 57.8 11.5 94.7 17.6 68.2 57.6 130.5 111.9 174.1 22.6 18.2 59.4 39.8 78.6 46.1 7.7 2.5 16.9 3.7 20.9 2.7 6.7-1.7 5.5-8.8-3.3-19.8-5.8-7.3-11.1-12.2-27.1-25.3-22-17.9-31.3-28.1-37.6-41.1-5.6-11.7-7.3-22.1-8.4-51.4-1-27.7-1.9-36.5-5.5-50.5-3.6-14.4-8.1-23.1-16.7-32.2-13.4-14.4-18.9-28.8-19.1-49.8-.1-19.5 4.1-31.2 15.6-43 13.4-13.8 19.1-30.5 23.7-70 9-76.4 83.9-151 169.2-168.5 5.4-1.1 15.8-2.5 23.3-3.1 31.9-2.9 68.2 4.7 101.4 21.2 67 33.1 113.6 95.4 118.6 158.4 1.4 17.5 7.7 40.3 14.1 51.3 1.5 2.6 5.6 7.6 9 11.2 11.6 12 16.1 25.7 15.1 45.9-.8 19.3-6.5 33-18.7 46-15.4 16.2-21.2 37.5-22.4 82.6-1.4 49.6-6.7 60.2-47.2 94-19.2 16.2-28.2 25.5-32 33.2-3 6-2.6 8.9 1.4 10.4 10.7 4.1 50.1-15 81.9-39.8 66.8-51.9 118.7-140.4 133.2-226.8 7.4-43.9 4.8-90.4-7.3-134.5C653.7 153.3 562.5 57.1 449.4 18 425 9.6 397.7 3.5 373.1 1 361-.2 325.2-.1 313 1.1z"/><path d="M340.6 154.7c-47.1 8-109.6 38.7-109.6 53.8 0 11.5 42.6 31 87.4 40.1 16.8 3.4 38.2 4.2 53.4 2 24.5-3.6 53.8-12.5 74.7-22.6 16.9-8.2 24.5-14.5 24.5-20.5 0-2.7-8.8-11.2-16.9-16.3-22-14.2-60.7-29.8-86.6-35.1-13.8-2.8-17.8-3-26.9-1.4zM197.8 261c-4.6 2.9-9 23.7-9.1 43-.1 11.2.2 14.1 1.7 17 4.7 9.1 14.5 12.1 45.1 14 24.5 1.6 233.2.8 246-.9 13.2-1.7 22.2-4.6 26.1-8.5 4.9-4.9 5.7-9.6 5.1-28.1-.7-22.3-3.8-31.5-11.8-35.5-8.2-4.2-20.1-1.6-44.9 10-8 3.7-18.1 7.9-22.6 9.3-41.4 13-103.1 14.7-149.4 4.2-13.6-3.1-24.6-6.9-39.5-13.8-6.6-3-15.8-6.7-20.5-8.2-9.3-2.9-23.3-4.3-26.2-2.5zM201.5 380.1c-20.8.9-35.9 2.5-41.3 4.3-5.1 1.8-10.2 8.5-10.2 13.5 0 9.2 12 14.6 41 18.5 22 3 43 3.7 125.8 4.3l83.2.6V452c0 32.9.9 42.4 5.3 54.9 4 11.6 9.1 14.6 14.4 8.3 5.6-6.6 8-19.9 9.2-50.7 1-24.9 2.2-30.3 7.3-35.2 6.4-6 13.8-8.2 34.8-10.3 37.6-3.7 60.3-8.9 67.4-15.5 5.5-5.1 2.3-7.5-14.5-10.5-52.3-9.2-236.9-16.6-322.4-12.9z"/><path d="M188 487.2c0 29.8 1.3 49.9 4 60.6 8.1 31.9 29.5 45.7 80 51.7 23.5 2.8 74.7 4 111.8 2.7 65.8-2.4 91.5-8.2 109.3-25 14.2-13.3 19.9-32.1 19.9-66.4 0-33.3-6.6-48.8-21-48.8-5.5 0-9.9 2-13.7 6.3-5.1 5.9-7.3 13.4-8.3 28.7-1.2 18.6-4.5 28.5-13 39.3-25.3 31.8-77.6 27.7-99.2-7.8-5.2-8.6-7.2-14.3-10.6-30.1-3.6-16.6-5.9-22.1-11.8-27.3-9.2-8.1-19.1-9.1-91.1-9.1H188v25.2zM313 644.7c-18.1 1-30.7 4.2-35 8.7-3 3.3-3.7 9.8-1.6 17.1 3.5 11.7 17.4 21 39.4 26.1 13.4 3.2 41.4 4.4 56.9 2.4 34.1-4.2 55.7-17.1 55.7-33 0-13.1-11.2-18.5-43.9-20.9-12.6-1-57.4-1.2-71.5-.4z"/></svg>