<?xml version="1.0" standalone="no"?>
<!DOCTYPE svg PUBLIC "-//W3C//DTD SVG 20010904//EN"
 "http://www.w3.org/TR/2001/REC-SVG-20010904/DTD/svg10.dtd">
<svg version="1.0" xmlns="http://www.w3.org/2000/svg"
 width="700.000000pt" height="700.000000pt" viewBox="0 0 700.000000 700.000000"
 preserveAspectRatio="xMidYMid meet">
<metadata>
Created by potrace 1.14, written by Peter Selinger 2001-2017
</metadata>
<g transform="translate(0.000000,700.000000) scale(0.100000,-0.100000)"
fill="#000000" stroke="none">
<path d="M3130 6989 c-214 -22 -473 -82 -710 -165 -1271 -441 -2125 -1392
-2359 -2624 -47 -251 -56 -360 -56 -700 0 -415 20 -578 115 -947 176 -682 576
-1305 1119 -1741 226 -182 594 -398 786 -461 77 -25 169 -37 209 -27 67 17 55
88 -33 198 -58 73 -111 122 -271 253 -220 179 -313 281 -376 411 -56 117 -73
221 -84 514 -10 277 -19 365 -55 505 -36 144 -81 231 -167 322 -134 144 -189
288 -191 498 -1 195 41 312 156 430 134 138 191 305 237 700 90 764 839 1510
1692 1685 54 11 158 25 233 31 319 29 682 -47 1014 -212 670 -331 1136 -954
1186 -1584 14 -175 77 -403 141 -513 15 -26 56 -76 90 -112 116 -120 161 -257
151 -459 -8 -193 -65 -330 -187 -460 -154 -162 -212 -375 -224 -826 -14 -496
-67 -602 -472 -940 -192 -162 -282 -255 -320 -332 -30 -60 -26 -89 14 -104
107 -41 501 150 819 398 668 519 1187 1404 1332 2268 74 439 48 904 -73 1345
-309 1127 -1221 2089 -2352 2480 -244 84 -517 145 -763 170 -121 12 -479 11
-601 -1z"/>
<path d="M3406 5453 c-471 -80 -1096 -387 -1096 -538 0 -115 426 -310 874
-401 168 -34 382 -42 534 -20 245 36 538 125 747 226 169 82 245 145 245 205
0 27 -88 112 -169 163 -220 142 -607 298 -866 351 -138 28 -178 30 -269 14z"/>
<path d="M1978 4390 c-46 -29 -90 -237 -91 -430 -1 -112 2 -141 17 -170 47
-91 145 -121 451 -140 245 -16 2332 -8 2460 9 132 17 222 46 261 85 49 49 57
96 51 281 -7 223 -38 315 -118 355 -82 42 -201 16 -449 -100 -80 -37 -181 -79
-226 -93 -414 -130 -1031 -147 -1494 -42 -136 31 -246 69 -395 138 -66 30
-158 67 -205 82 -93 29 -233 43 -262 25z"/>
<path d="M2015 3199 c-208 -9 -359 -25 -413 -43 -51 -18 -102 -85 -102 -135 0
-92 120 -146 410 -185 220 -30 430 -37 1258 -43 l832 -6 0 -307 c0 -329 9
-424 53 -549 40 -116 91 -146 144 -83 56 66 80 199 92 507 10 249 22 303 73
352 64 60 138 82 348 103 376 37 603 89 674 155 55 51 23 75 -145 105 -523 92
-2369 166 -3224 129z"/>
<path d="M1880 2128 c0 -298 13 -499 40 -606 81 -319 295 -457 800 -517 235
-28 747 -40 1118 -27 658 24 915 82 1093 250 142 133 199 321 199 664 0 333
-66 488 -210 488 -55 0 -99 -20 -137 -63 -51 -59 -73 -134 -83 -287 -12 -186
-45 -285 -130 -393 -253 -318 -776 -277 -992 78 -52 86 -72 143 -106 301 -36
166 -59 221 -118 273 -92 81 -191 91 -911 91 l-563 0 0 -252z"/>
<path d="M3130 553 c-181 -10 -307 -42 -350 -87 -30 -33 -37 -98 -16 -171 35
-117 174 -210 394 -261 134 -32 414 -44 569 -24 341 42 557 171 557 330 0 131
-112 185 -439 209 -126 10 -574 12 -715 4z"/>
</g>
</svg>
